<svg xmlns="http://www.w3.org/2000/svg" xmlns:xlink="http://www.w3.org/1999/xlink" viewBox="0 0 100 100" width="100" height="100" preserveAspectRatio="xMidYMid meet" style="width: 100%; height: 100%; transform: translate3d(0px, 0px, 0px); content-visibility: visible;" id="Wallet"><defs><clipPath id="__lottie_element_22"><rect width="100" height="100" x="0" y="0"/></clipPath><g id="__lottie_element_29"><g transform="matrix(1,0,0,0.6977999806404114,50.5,70.75)" opacity="1" style="display: block;"><g opacity="1" transform="matrix(1,0,0,1,1.2960000038146973,-22.672000885009766)"><path fill="rgb(255,255,255)" fill-opacity="1" d=" M41.79600143432617,-22.827999114990234 C41.79600143432617,-22.827999114990234 41.79600143432617,22.827999114990234 41.79600143432617,22.827999114990234 C41.79600143432617,22.827999114990234 -41.79600143432617,22.827999114990234 -41.79600143432617,22.827999114990234 C-41.79600143432617,22.827999114990234 -41.79600143432617,-22.827999114990234 -41.79600143432617,-22.827999114990234 C-41.79600143432617,-22.827999114990234 41.79600143432617,-22.827999114990234 41.79600143432617,-22.827999114990234z"/><path stroke-linecap="butt" stroke-linejoin="miter" fill-opacity="0" stroke-miterlimit="4" stroke="rgb(255,255,255)" stroke-opacity="1" stroke-width="0" d=" M41.79600143432617,-22.827999114990234 C41.79600143432617,-22.827999114990234 41.79600143432617,22.827999114990234 41.79600143432617,22.827999114990234 C41.79600143432617,22.827999114990234 -41.79600143432617,22.827999114990234 -41.79600143432617,22.827999114990234 C-41.79600143432617,22.827999114990234 -41.79600143432617,-22.827999114990234 -41.79600143432617,-22.827999114990234 C-41.79600143432617,-22.827999114990234 41.79600143432617,-22.827999114990234 41.79600143432617,-22.827999114990234z"/></g></g></g><g id="__lottie_element_35"><g transform="matrix(1,0,0,0.6977999806404114,50.5,34.75)" opacity="1" style="display: block;"><g opacity="1" transform="matrix(1,0,0,1,1.2960000038146973,-22.672000885009766)"><path fill="rgb(255,255,255)" fill-opacity="1" d=" M41.79600143432617,-22.827999114990234 C41.79600143432617,-22.827999114990234 41.79600143432617,22.827999114990234 41.79600143432617,22.827999114990234 C41.79600143432617,22.827999114990234 -41.79600143432617,22.827999114990234 -41.79600143432617,22.827999114990234 C-41.79600143432617,22.827999114990234 -41.79600143432617,-22.827999114990234 -41.79600143432617,-22.827999114990234 C-41.79600143432617,-22.827999114990234 41.79600143432617,-22.827999114990234 41.79600143432617,-22.827999114990234z"/><path stroke-linecap="butt" stroke-linejoin="miter" fill-opacity="0" stroke-miterlimit="4" stroke="rgb(255,255,255)" stroke-opacity="1" stroke-width="0" d=" M41.79600143432617,-22.827999114990234 C41.79600143432617,-22.827999114990234 41.79600143432617,22.827999114990234 41.79600143432617,22.827999114990234 C41.79600143432617,22.827999114990234 -41.79600143432617,22.827999114990234 -41.79600143432617,22.827999114990234 C-41.79600143432617,22.827999114990234 -41.79600143432617,-22.827999114990234 -41.79600143432617,-22.827999114990234 C-41.79600143432617,-22.827999114990234 41.79600143432617,-22.827999114990234 41.79600143432617,-22.827999114990234z"/></g></g></g><mask id="__lottie_element_35_1" mask-type="alpha"><use xmlns:ns1="http://www.w3.org/1999/xlink" ns1:href="#__lottie_element_35"/></mask><mask id="__lottie_element_29_1" mask-type="alpha"><use xmlns:ns2="http://www.w3.org/1999/xlink" ns2:href="#__lottie_element_29"/></mask></defs><g clip-path="url(#__lottie_element_22)"><g transform="matrix(1,0,0,1,9.75,9.75)" opacity="1" style="display: block;"><g opacity="1" transform="matrix(1,0,0,1,40.25,45.25)"><path fill="rgb(60,95,246)" fill-opacity="1" d=" M-30,30 C-30,30 30,30 30,30 C35.52299880981445,30 40,25.523000717163086 40,20 C40,20 40,-30 40,-30 C40,-30 -40,-30 -40,-30 C-40,-30 -40,20 -40,20 C-40,25.523000717163086 -35.52299880981445,30 -30,30z"/></g><g opacity="1" transform="matrix(1,0,0,1,40.25,15.25)"><path fill="rgb(42,68,160)" fill-opacity="1" d=" M-40,10 C-40,10 30,10 30,10 C35.52299880981445,10 40,5.5229997634887695 40,0 C40,-5.5229997634887695 35.52299880981445,-10 30,-10 C30,-10 -30,-10 -30,-10 C-35.52299880981445,-10 -40,-5.5229997634887695 -40,0 C-40,0 -40,10 -40,10z"/></g></g><g mask="url(#__lottie_element_29_1)" style="display: block;"><g transform="matrix(1,0,0,1,9.75,9.75)" opacity="1"><g opacity="1" transform="matrix(1,0,0,1,20.25,45.25)"><path fill="rgb(54,193,149)" fill-opacity="1" d=" M-20,10 C-20,10 10,10 10,10 C15.52299976348877,10 20,5.5229997634887695 20,0 C20,-5.5229997634887695 15.52299976348877,-10 10,-10 C10,-10 -20,-10 -20,-10 C-20,-10 -20,10 -20,10z"/></g><g opacity="1" transform="matrix(1,0,0,1,30.25,45.25)"><path fill="rgb(255,255,255)" fill-opacity="1" d=" M-5,0 C-5,2.760999917984009 -2.760999917984009,5 0,5 C2.760999917984009,5 5,2.760999917984009 5,0 C5,-2.760999917984009 2.760999917984009,-5 0,-5 C-2.760999917984009,-5 -5,-2.760999917984009 -5,0z"/></g></g></g><g mask="url(#__lottie_element_35_1)" style="display: block;"><g transform="matrix(1,0,0,1,9.75,9.75)" opacity="1"><g opacity="1" transform="matrix(1,0,0,1,30.25,12.75)"><path fill="rgb(54,193,149)" fill-opacity="1" d=" M25,12.5 C25,12.5 0,-12.5 0,-12.5 C0,-12.5 -25,12.5 -25,12.5 C-25,12.5 25,12.5 25,12.5z"/></g><g opacity="1" transform="matrix(1,0,0,1,40.25,12.75)"><path fill="rgb(255,185,64)" fill-opacity="1" d=" M25,12.5 C25,12.5 0,-12.5 0,-12.5 C0,-12.5 -25,12.5 -25,12.5 C-25,12.5 25,12.5 25,12.5z"/></g><g opacity="1" transform="matrix(1,0,0,1,40.25,19.51799964904785)"><path fill="rgb(255,255,255)" fill-opacity="1" d=" M-3.5360000133514404,-5.73199987411499 C-2.63100004196167,-4.827000141143799 -1.38100004196167,-4.26800012588501 0,-4.26800012588501 C1.38100004196167,-4.26800012588501 2.63100004196167,-4.827000141143799 3.5350000858306885,-5.73199987411499 C3.5350000858306885,-5.73199987411499 15,5.73199987411499 15,5.73199987411499 C15,5.73199987411499 -15,5.73199987411499 -15,5.73199987411499 C-15,5.73199987411499 -3.5360000133514404,-5.73199987411499 -3.5360000133514404,-5.73199987411499z"/></g></g></g><g transform="matrix(1,0,0,1,4.75,19.75)" opacity="1" style="display: block;"><g opacity="1" transform="matrix(1,0,0,1,75.25,60.25)"><path fill="rgb(255,185,64)" fill-opacity="1" d=" M-15,0 C-15,-8.284000396728516 -8.284000396728516,-15 0,-15 C8.284000396728516,-15 15,-8.284000396728516 15,0 C15,8.284000396728516 8.284000396728516,15 0,15 C-8.284000396728516,15 -15,8.284000396728516 -15,0z"/></g><g opacity="1" transform="matrix(1,0,0,1,76,61)"><path stroke-linecap="round" stroke-linejoin="round" fill-opacity="0" stroke="rgb(255,255,255)" stroke-opacity="1" stroke-width="2" d=" M-5.302999973297119,0 C-5.302999973297119,0 -1.7669999599456787,3.5360000133514404 -1.7669999599456787,3.5360000133514404 C-1.7669999599456787,3.5360000133514404 5.302999973297119,-3.5360000133514404 5.302999973297119,-3.5360000133514404"/></g></g></g></svg>